<svg preserveAspectRatio="none" width="100%" height="100%" overflow="visible" style="display: block;" viewBox="0 0 82 127" fill="none" xmlns="http://www.w3.org/2000/svg">
<g id="Frame 1171279918">
<path id="Vector" d="M44.408 65C53.47 72.068 62.5456 79.1414 71.5058 86.3363C77.3706 91.0436 80.7442 93.0801 82 100.645C81.8914 100.783 80.4591 102.567 80.4591 102.567C57.9365 111.109 35.0813 119.139 12.2667 126.832C11.0788 127.232 10.624 126.851 9.57863 126.391C8.94735 126.023 8.34321 125.307 7.96308 124.703C3.78845 118.141 14.3982 82.16 16.6925 72.3253C17.4528 72.5523 18.2334 72.7319 19.014 72.863C26.4333 74.0822 38.1494 69.3972 44.408 65Z" fill="var(--fill-0, #E88601)"/>
<path id="Vector_2" d="M10 126.4L10.4319 125.249C12.2675 124.285 22.9167 120.329 24.6038 119.938C32.3848 118.135 77.0398 100.014 82 101.042C81.892 101.178 80.4681 102.935 80.4681 102.935C58.0765 111.348 35.3542 119.258 12.6725 126.834C11.4915 127.228 11.0393 126.853 10 126.4Z" fill="var(--fill-0, #F16E16)"/>
<path id="Vector_3" d="M20.3762 82.3215C21.1925 81.8259 22.172 81.9078 22.9242 82.5357C23.6763 83.1629 24.0844 84.2345 23.9853 85.3279C23.8862 86.4213 23.2915 87.3613 22.446 87.7771C21.2041 88.3854 19.7814 87.7078 19.2275 86.2428C18.6677 84.777 19.175 83.0467 20.3762 82.3215Z" fill="var(--fill-0, #F89E00)"/>
<path id="Vector_4" d="M39.9683 91.1532C41.447 90.701 43.0958 91.2813 43.739 92.4807C44.3822 93.68 43.7982 95.0901 42.4082 95.7073C41.4175 96.1459 40.2197 96.088 39.2955 95.5576C38.3713 95.0266 37.8833 94.1119 38.0238 93.1848C38.1643 92.2583 38.9184 91.4747 39.9683 91.1532Z" fill="var(--fill-0, #F89E00)"/>
<path id="Vector_5" d="M16.888 104.588C17.9422 103.702 19.5107 103.832 20.3997 104.878C21.2952 105.924 21.1746 107.494 20.1331 108.393C19.0852 109.299 17.4976 109.177 16.5958 108.122C15.7004 107.067 15.8274 105.481 16.888 104.588Z" fill="var(--fill-0, #F89E00)"/>
<path id="Vector_6" d="M0 6.29595L0.302108 3.89739C3.14147 0.609934 8.7866 -0.726903 12.8745 0.384345C12.9282 6.48588 29.5683 49.9451 33.7568 57.0168C34.1193 57.627 42.4964 63.8746 44 64.9726C37.8111 69.3524 26.2255 74.0189 18.8888 72.8045C18.1169 72.674 17.345 72.495 16.5932 72.269C17.3114 68.3284 19.889 60.2825 18.3182 56.9859C13.8276 47.5365 5.47734 13.1504 0 6.29595Z" fill="var(--fill-0, #F9AB00)"/>
<path id="Vector_7" d="M28.7739 61.0662C30.5234 60.7462 32.28 61.6138 32.8299 63.0754C33.3797 64.5371 32.5586 66.1205 30.9162 66.7427C29.6951 67.2071 28.2668 67.0339 27.2457 66.296C26.2245 65.5582 25.7818 64.3847 26.1032 63.273C26.4245 62.1607 27.4599 61.3042 28.7739 61.0662Z" fill="var(--fill-0, #E88601)"/>
</g>
</svg>
