<svg preserveAspectRatio="none" width="100%" height="100%" overflow="visible" style="display: block;" viewBox="0 0 179.965 215.429" fill="none" xmlns="http://www.w3.org/2000/svg">
<g id="Frame 1171279920">
<path id="Vector" d="M58.322 0.105111L58.67 0.297913C76.469 10.0132 168.172 38.5922 173.253 54.8542C175.684 62.6352 159.65 83.4002 161.809 88.1172C148.822 114.744 136.357 144.962 125.244 172.441C121.287 182.226 114.245 198.828 111.256 208.598C105.02 203.245 108.015 200.859 104.951 197.261C100.048 191.503 95.233 191.581 88.779 182.382L85.999 179.59C82.606 175.579 79.054 171.668 76.552 167.017C74.997 165.94 73.366 164.875 72.287 163.292C71.22 161.727 71.083 161.407 71.413 159.609C66.34 157.323 62.682 153.624 59.552 149.093L56.917 146.616C53.413 144.131 39.638 130.948 36.102 127.637C32.634 126.8 21.277 117.667 18.202 114.806C15.114 112.791 5.063 108.694 0 105.841C14.112 78.8222 32.572 48.6142 42.406 19.8872C46.35 10.6572 45.08 -1.24319 58.322 0.105111Z" fill="var(--fill-0, #F9AB00)"/>
<path id="Vector_2" d="M42.9972 106.03C38.9392 104.294 21.1352 97.4811 19.5002 95.7401L19.5272 93.9971C21.9092 93.2011 23.9102 92.7621 26.4172 93.8901C57.6882 107.97 89.9882 119.772 121.411 133.504C124.303 134.767 127.644 137.04 130.039 139.059L129.968 140.116C122.401 139.765 118.42 137.359 111.587 134.213L103.619 150.222C109.932 152.968 116.121 154.875 120.988 159.519L120.927 160.759C114.281 160.986 107.651 157.247 101.555 154.46C99.3871 159.28 97.1132 164.65 94.6732 169.291C101.769 172.632 106.039 173.813 111.896 179.109L112.077 180.358C104.673 179.823 99.6752 176.911 93.0442 173.731C91.5572 176.516 89.8792 179.441 88.7782 182.382L85.9982 179.59C82.6052 175.579 79.0532 171.668 76.5512 167.017C74.9962 165.94 73.3652 164.875 72.2862 163.292C71.2192 161.727 71.0822 161.407 71.4122 159.609C66.3392 157.323 62.6812 153.624 59.5512 149.093L56.9162 146.616C53.4122 144.131 39.6372 130.948 36.1012 127.637C32.6332 126.8 21.2762 117.667 18.2012 114.806C23.3392 116.965 30.2922 119.638 35.1822 121.982C37.6752 116.936 40.7412 111.097 42.9972 106.03Z" fill="var(--fill-0, #F16E16)"/>
<path id="Vector_3" d="M65.0927 139.294C76.0847 143.898 87.0998 149.081 98.2838 153.154L91.3707 167.913C84.6817 165.233 78.0298 162.465 71.4138 159.61C66.3408 157.324 62.6827 153.625 59.5527 149.094L65.0927 139.294Z" fill="var(--fill-0, #F9AB00)"/>
<path id="Vector_4" d="M36.1016 127.638C44.8026 130.649 53.0076 134.187 61.4766 137.758L56.9166 146.617C53.4126 144.132 39.6376 130.949 36.1016 127.638Z" fill="var(--fill-0, #F9AB00)"/>
<path id="Vector_5" d="M74.4112 118.958C85.2852 124.25 97.0622 128.281 108.173 133.167L100.059 148.938L67.3262 135.308C69.9402 129.951 72.1862 124.485 74.4112 118.958Z" fill="var(--fill-0, #F9AB00)"/>
<path id="Vector_6" d="M46.1744 107.501C54.5824 110.427 62.9434 114.302 71.2054 117.663C69.1074 123.02 66.6404 128.132 64.0924 133.285C57.7654 133.407 44.7514 125.841 38.6074 123.152C41.4224 118.086 43.7564 112.764 46.1744 107.501Z" fill="var(--fill-0, #F9AB00)"/>
<path id="Vector_7" d="M67.9435 62.7153C73.3885 63.7913 91.4456 63.6973 96.9056 62.3223L100.445 64.4273C116.525 71.9523 128.923 75.0603 147.11 70.5293C147.699 71.3123 148.971 72.6253 148.75 73.2833C143.826 87.9433 131.485 106.676 125.689 120.736C115.939 116.638 35.3236 83.2883 33.2266 79.2103C33.5146 77.8023 33.6866 76.4353 34.3676 75.1853C39.4916 75.9423 58.2496 66.9723 64.5316 64.2573L67.9435 62.7153Z" fill="var(--fill-0, #EA5101)"/>
<path id="Vector_8" d="M100.445 64.4277C116.525 71.9527 128.923 75.0607 147.11 70.5297C142.982 74.2017 127.353 106.639 123.888 113.536C117.68 110.992 111.226 108.529 105.364 105.288C108.277 100.159 121.227 78.1627 120.66 73.7367L119.478 73.3987C113.867 78.0127 104.802 96.8357 101.061 103.945L83.3027 96.0397C88.0767 88.3517 96.6108 72.5737 100.445 64.4277Z" fill="var(--fill-0, #E88601)"/>
<path id="Vector_9" d="M67.9446 62.7153C73.3896 63.7913 91.4467 63.6973 96.9067 62.3223C91.2927 71.3163 84.4397 84.7233 79.1847 94.2903C72.7287 91.7953 64.8577 88.1003 58.3887 85.2863C60.6947 81.2173 62.9546 77.1243 65.1686 73.0053C66.8926 69.7613 69.0496 66.3243 67.9446 62.7153Z" fill="var(--fill-0, #E88601)"/>
<path id="Vector_10" d="M34.3672 75.1858C39.4912 75.9428 58.2492 66.9728 64.5312 64.2578L54.1982 83.4218L34.3672 75.1858Z" fill="var(--fill-0, #E88601)"/>
<path id="Vector_11" d="M68.7488 15.3545C70.2138 15.5345 71.6698 15.7735 73.1148 16.0705C79.6548 17.4695 82.5877 21.5375 86.0277 26.8535L87.1028 39.5015C83.7388 47.3175 80.4657 50.4835 72.5567 53.6565C70.7507 53.5905 68.9288 53.5035 67.1388 53.2415C63.0598 52.6455 58.6898 50.1465 56.2358 46.8185C51.5508 40.4645 52.8878 32.6895 53.9828 25.4685C58.6348 19.5575 61.4378 17.2885 68.7488 15.3545Z" fill="var(--fill-0, #F67D00)"/>
<path id="Vector_12" d="M65.682 35.9001C64.892 33.7971 64.0599 30.5141 62.2349 29.5341L59.432 32.8321L58.441 31.6221C57.56 26.0871 58.884 22.4461 65.117 21.4531C68.345 22.4041 68.986 23.3061 71.21 25.7701L71.4279 28.1631C76.3579 30.2031 76.4569 29.3791 79.2499 33.1031C79.6119 40.4441 72.477 37.6981 68.575 40.3271L67.4 38.2411L65.682 35.9001Z" fill="var(--fill-0, #EC0A00)"/>
<path id="Vector_13" d="M71.4283 28.1641C76.3583 30.2041 76.4574 29.3801 79.2504 33.1041C79.6124 40.4451 72.4774 37.6991 68.5754 40.3281L67.4004 38.2421C69.7654 33.9841 70.3383 32.8871 71.4283 28.1641Z" fill="var(--fill-0, #EC0A00)"/>
<path id="Vector_14" d="M71.2097 25.7705L71.4276 28.1635C70.3376 32.8865 69.7647 33.9835 67.3997 38.2415L65.6816 35.9005C66.2576 31.3815 68.4067 29.4535 71.2097 25.7705Z" fill="var(--fill-0, #F16E16)"/>
<path id="Vector_15" d="M161.809 88.1172C163.35 89.9982 166.065 93.5232 167.643 95.1412L139.714 164.696C135.746 174.627 127.27 194.316 124.61 204.046C122.267 208.067 119.837 211.731 117.009 215.429C114.861 213.522 113.049 210.851 111.256 208.598C114.245 198.828 121.287 182.226 125.244 172.441C136.357 144.962 148.822 114.744 161.809 88.1172Z" fill="var(--fill-0, #EC0A00)"/>
<path id="Vector_16" d="M167.642 95.1416C171.318 99.4526 181.098 108.689 179.856 112.424C173.367 131.94 136.334 189.819 124.609 204.047C127.269 194.317 135.745 174.628 139.713 164.697L167.642 95.1416Z" fill="var(--fill-0, #EA5101)"/>
</g>
</svg>
