<svg preserveAspectRatio="none" width="100%" height="100%" overflow="visible" style="display: block;" viewBox="0 0 87 93" fill="none" xmlns="http://www.w3.org/2000/svg">
<g id="Frame 1171279919">
<path id="Vector" d="M0.0961426 59.744C-1.61618 57.1813 20.0691 4.6579 23.3312 0.0710712C24.5061 -0.208988 26.1934 0.398246 27.3121 0.85562C45.4852 8.27978 64.1771 15.0299 81.9503 23.2616C81.9503 23.2616 82.6002 24.7064 82.6627 24.8526C83.9813 28.1852 85.8811 32.5991 86.9997 35.8958C83.5876 44.0074 66.0831 89.2671 62.7272 92.991C57.584 93.4808 13.3698 73.8037 4.15197 70.7569C2.83961 66.958 1.61474 63.466 0.0961426 59.744Z" fill="var(--fill-0, #F67D00)"/>
<path id="Vector_2" d="M58.7529 82.9737C66.4459 65.3074 74.6138 41.438 82.663 24.8525C83.9816 28.185 85.8814 32.599 87 35.8956C83.5878 44.0073 66.0834 89.267 62.7275 92.9909C57.5843 93.4807 13.3701 73.8036 4.15225 70.7568C2.83989 66.9579 1.61502 63.4659 0.0964257 59.7439C17.4884 66.1735 41.7172 77.7451 58.7529 82.9737Z" fill="var(--fill-0, #EA5101)"/>
<path id="Vector_3" d="M36.8361 23.5155C39.4045 23.8931 42.3418 25.4217 44.7916 26.3531L43.4104 58.0681L36.8174 55.3917L37.386 48.3559L32.7865 46.4403L26.9183 44.1286C25.4747 46.0191 23.8687 47.8135 22.3313 49.6336L16.0445 47.0253C22.1251 38.8099 30.0055 31.1794 36.8361 23.5155Z" fill="var(--fill-0, #FABE24)"/>
<path id="Vector_4" d="M37.7742 31.6921C37.818 31.7484 37.8555 31.8037 37.893 31.8611C38.7867 33.2854 38.6304 38.1576 38.193 39.8001C37.818 41.1851 37.4618 41.7229 36.2369 42.4503L33.3685 41.3876C32.6435 41.1375 32.0811 40.6216 31.4812 40.155C31.7436 37.3819 35.8869 33.7602 37.7742 31.6921Z" fill="var(--fill-0, #F67D00)"/>
<path id="Vector_5" d="M57.8591 31.7103L63.7336 34.1146C60.1277 43.3893 56.2468 52.5762 52.491 61.795C50.5037 60.9419 48.5226 60.0658 46.5541 59.1682L57.8591 31.7103Z" fill="var(--fill-0, #FABE24)"/>
</g>
</svg>
