<svg preserveAspectRatio="none" width="100%" height="100%" overflow="visible" style="display: block;" viewBox="0 0 1025.89 494.001" fill="none" xmlns="http://www.w3.org/2000/svg">
<path id="Subtract" opacity="0.75" d="M420.351 82.2383C448.322 0.713125 562.489 -39.8036 604.804 54.3604C638.451 129.238 584.003 231.021 515.771 268.69C664.246 385.458 880.952 367.313 1025.89 487.408C995.567 489.22 964.965 490.727 934.781 494.001C914.492 484.55 894.677 475.409 873.793 467.301C739.552 415.185 567.971 402.194 462.571 295.183C368.568 326.316 271.799 311.105 184.372 267.137C163.224 256.527 143.017 244.136 123.97 230.098C99.864 212.406 15.0127 139.142 9.36717 108.979C-0.24142 100.556 -2.77685 86.6223 3.24901 75.3546C9.27491 64.0869 22.2724 58.4605 34.6123 61.7764C46.9517 65.0902 55.3777 76.474 54.9453 89.2432C120.547 174.253 215.905 240.01 324.07 253.903C358.911 258.607 394.335 256.481 428.362 247.636C403.08 188.923 399.039 144.358 420.351 82.2383ZM526.506 58.7022C524.002 58.2639 521.411 58.2483 518.881 58.3555C495.401 69.2361 481.373 83.7797 472.339 108.556C461.157 139.215 459.965 180.74 474.024 210.689C475.745 214.352 478.192 217.626 480.853 220.657L485.157 221.7L492.64 216.516C523.209 195.44 547.792 159.855 554.575 123.105C557.408 107.751 558.983 87.7739 549.644 74.2559C544.443 66.7263 535.628 60.2995 526.506 58.7022Z" fill="var(--fill-0, #EA5101)"/>
</svg>
