<svg preserveAspectRatio="none" width="100%" height="100%" overflow="visible" style="display: block;" viewBox="0 0 38.5449 62.2983" fill="none" xmlns="http://www.w3.org/2000/svg">
<path id="Vector" d="M20.2598 0C22.2898 0.0397 24.4198 0.208406 26.3898 0.742706C30.0198 1.72891 32.8698 5.3743 34.6398 8.5097C39.4598 17.0737 39.3798 30.1887 36.7698 39.4317C33.6098 50.6157 26.8099 56.8067 17.0499 62.2147C15.7299 62.2817 14.4098 62.3087 13.0898 62.2947C9.35977 62.2347 4.95977 60.8527 2.33977 58.0357C0.429767 55.9777 -0.0801888 53.3557 0.00981119 50.6397C0.349811 40.5837 8.07984 33.5667 11.0398 24.4907C12.8798 18.8597 12.4498 12.3967 14.7898 6.9808C16.0198 4.1271 18.0198 2.0979 20.2598 0Z" fill="var(--fill-0, #EA5101)"/>
</svg>
