<svg preserveAspectRatio="none" width="100%" height="100%" overflow="visible" style="display: block;" viewBox="0 0 25.8128 28.2712" fill="none" xmlns="http://www.w3.org/2000/svg">
<path id="Vector" d="M3.19319 0.00908489C3.52357 -0.00515865 3.84998 0.000822109 4.18007 0.00395569C4.43451 0.00623466 4.68214 0.0133571 4.9329 0.0580818C9.15977 0.811565 15.3445 6.28849 17.4996 9.86276C18.9353 12.2437 19.7652 15.0335 21.2831 17.3574C22.3045 18.9211 24.0227 19.9463 25.0801 21.4741C25.583 22.2005 25.9536 23.2753 25.761 24.1624C25.3969 25.8395 23.4724 27.0137 22.1498 27.8689C21.2352 28.3292 19.8063 28.3882 18.8361 28.078C15.4783 27.0052 14.5132 22.5731 12.7313 19.9369C9.72787 15.4932 3.5672 14.3908 1.08627 9.49415C0.137933 7.62197 -0.367829 4.765 0.314454 2.73387C0.797833 1.29556 1.90598 0.644632 3.19319 0.00908489Z" fill="var(--fill-0, #FABE24)"/>
</svg>
